<svg width="128" height="128" viewBox="0 0 128 128" xmlns="http://www.w3.org/2000/svg">
  <g fill="none" fill-rule="evenodd">
    <g fill-rule="nonzero">
      <g>
        <path fill="#FDD835" d="M0 -7.10542736e-15L128 -7.10542736e-15 128 128 1.36223684e-15 128"/>
        <path d="M111.760337,92.8730099 C110.879963,87.4086952 107.304705,82.8189005 96.714297,78.5391107 C93.035352,76.8541767 88.9339811,75.6476453 87.7118264,72.8690829 C87.2778798,71.252082 87.2202763,70.3412035 87.4948531,69.3623917 C88.2830613,66.1857983 92.087774,65.1955049 95.1033185,66.1063835 C97.0455173,66.7550974 98.8840297,68.2467568 99.9928975,70.6263314 C105.179135,67.2794267 105.168574,67.3014332 108.789916,65.0012734 C107.464075,62.9527534 106.756511,62.0074299 105.888618,61.1309963 C102.769387,57.6587501 98.5192074,55.8704811 91.7219917,56.0073042 L88.1812951,56.4637003 C84.7884476,57.3181274 81.5549698,59.0930011 79.6588538,61.4725757 C73.9695459,67.9061341 75.5920451,79.1658181 82.5150285,83.7996259 C89.3352857,88.9013114 99.3544585,90.0619161 100.634217,94.832547 C101.879413,100.672886 96.3273933,102.563533 90.8089758,101.891856 C86.7421671,101.048911 84.4802687,98.988909 82.0349992,95.2430165 C77.5342439,97.8388291 77.5342439,97.8388291 72.9067608,100.491093 C74.004108,102.882149 75.1571385,103.964296 76.996611,106.03578 C85.7024235,114.836474 107.488076,114.403998 111.395515,101.083356 C111.553925,100.626003 112.606149,97.5757076 111.760337,92.8730099 L111.760337,92.8730099 Z M66.7479842,56.7124697 L55.5066566,56.7124697 L55.4605738,85.6768777 C55.4605738,91.8367898 55.7802733,97.4838543 54.7750918,99.214715 C53.1305113,102.619028 48.8688106,102.197077 46.9266118,101.536881 C44.9498509,100.568594 43.9446694,99.1917517 42.7801182,97.2456098 C42.4604186,96.6868356 42.220404,96.2543596 42.139759,96.2208714 L33,101.799046 C34.519773,104.907706 36.7586299,107.605897 39.6263253,109.358764 C43.9101073,111.921089 49.6675795,112.706626 55.6890677,111.328826 C59.6080274,110.191185 62.9893543,107.834573 64.7597025,104.247511 C67.3192191,99.5448128 66.7700655,93.8527785 66.7470241,87.557 C66.8046276,77.2856958 66.7479842,67.0163053 66.7479842,56.7124697 Z" fill="#424242"/>
      </g>
    </g>
  </g>
</svg>
